<svg width="76" height="19" viewBox="0 0 76 19" fill="none" xmlns="http://www.w3.org/2000/svg">
<path d="M20.3281 3.625V11.3594C20.3229 12.4323 19.9844 13.3099 19.3125 13.9922C18.6458 14.6745 17.7396 15.0573 16.5938 15.1406L16.1953 15.1562C14.9505 15.1562 13.9583 14.8203 13.2188 14.1484C12.4792 13.4766 12.1042 12.5521 12.0938 11.375V3.625H13.5781V11.3281C13.5781 12.151 13.8047 12.7917 14.2578 13.25C14.7109 13.7031 15.3568 13.9297 16.1953 13.9297C17.0443 13.9297 17.6927 13.7031 18.1406 13.25C18.5938 12.7969 18.8203 12.1589 18.8203 11.3359V3.625H20.3281ZM29.625 10.8672C29.625 12.1589 29.3281 13.1979 28.7344 13.9844C28.1406 14.7656 27.3438 15.1562 26.3438 15.1562C25.276 15.1562 24.4505 14.7786 23.8672 14.0234L23.7969 15H22.4688V3H23.9141V7.47656C24.4974 6.7526 25.3021 6.39062 26.3281 6.39062C27.3542 6.39062 28.1589 6.77865 28.7422 7.55469C29.3307 8.33073 29.625 9.39323 29.625 10.7422V10.8672ZM28.1797 10.7031C28.1797 9.71875 27.9896 8.95833 27.6094 8.42188C27.2292 7.88542 26.6823 7.61719 25.9688 7.61719C25.0156 7.61719 24.3307 8.0599 23.9141 8.94531V12.6016C24.3568 13.487 25.0469 13.9297 25.9844 13.9297C26.6771 13.9297 27.2161 13.6615 27.6016 13.125C27.987 12.5885 28.1797 11.7812 28.1797 10.7031ZM34.9609 15.1562C33.8151 15.1562 32.8828 14.7812 32.1641 14.0312C31.4453 13.276 31.0859 12.2682 31.0859 11.0078V10.7422C31.0859 9.90365 31.2448 9.15625 31.5625 8.5C31.8854 7.83854 32.3333 7.32292 32.9062 6.95312C33.4844 6.57812 34.1094 6.39062 34.7812 6.39062C35.8802 6.39062 36.7344 6.7526 37.3438 7.47656C37.9531 8.20052 38.2578 9.23698 38.2578 10.5859V11.1875H32.5312C32.5521 12.0208 32.7943 12.6953 33.2578 13.2109C33.7266 13.7214 34.3203 13.9766 35.0391 13.9766C35.5495 13.9766 35.9818 13.8724 36.3359 13.6641C36.6901 13.4557 37 13.1797 37.2656 12.8359L38.1484 13.5234C37.4401 14.612 36.3776 15.1562 34.9609 15.1562ZM34.7812 7.57812C34.1979 7.57812 33.7083 7.79167 33.3125 8.21875C32.9167 8.64062 32.6719 9.23438 32.5781 10H36.8125V9.89062C36.7708 9.15625 36.5729 8.58854 36.2188 8.1875C35.8646 7.78125 35.3854 7.57812 34.7812 7.57812ZM44.0234 7.84375C43.8047 7.80729 43.5677 7.78906 43.3125 7.78906C42.3646 7.78906 41.7214 8.19271 41.3828 9V15H39.9375V6.54688H41.3438L41.3672 7.52344C41.8411 6.76823 42.513 6.39062 43.3828 6.39062C43.6641 6.39062 43.8776 6.42708 44.0234 6.5V7.84375ZM52.0156 9.74219H47.0859V13.7734H52.8125V15H45.5859V3.625H52.7344V4.85938H47.0859V8.51562H52.0156V9.74219ZM59.6719 15C59.5885 14.8333 59.5208 14.5365 59.4688 14.1094C58.7969 14.8073 57.9948 15.1562 57.0625 15.1562C56.2292 15.1562 55.5443 14.9219 55.0078 14.4531C54.4766 13.9792 54.2109 13.3802 54.2109 12.6562C54.2109 11.776 54.5443 11.0938 55.2109 10.6094C55.8828 10.1198 56.8255 9.875 58.0391 9.875H59.4453V9.21094C59.4453 8.70573 59.2943 8.30469 58.9922 8.00781C58.6901 7.70573 58.2448 7.55469 57.6562 7.55469C57.1406 7.55469 56.7083 7.6849 56.3594 7.94531C56.0104 8.20573 55.8359 8.52083 55.8359 8.89062H54.3828C54.3828 8.46875 54.5312 8.0625 54.8281 7.67188C55.1302 7.27604 55.5365 6.96354 56.0469 6.73438C56.5625 6.50521 57.1276 6.39062 57.7422 6.39062C58.7161 6.39062 59.4792 6.63542 60.0312 7.125C60.5833 7.60938 60.8698 8.27865 60.8906 9.13281V13.0234C60.8906 13.7995 60.9896 14.4167 61.1875 14.875V15H59.6719ZM57.2734 13.8984C57.7266 13.8984 58.1562 13.7812 58.5625 13.5469C58.9688 13.3125 59.263 13.0078 59.4453 12.6328V10.8984H58.3125C56.5417 10.8984 55.6562 11.4167 55.6562 12.4531C55.6562 12.9062 55.8073 13.2604 56.1094 13.5156C56.4115 13.7708 56.7995 13.8984 57.2734 13.8984ZM65.1172 4.5V6.54688H66.6953V7.66406H65.1172V12.9062C65.1172 13.2448 65.1875 13.5 65.3281 13.6719C65.4688 13.8385 65.7083 13.9219 66.0469 13.9219C66.2135 13.9219 66.4427 13.8906 66.7344 13.8281V15C66.3542 15.1042 65.9844 15.1562 65.625 15.1562C64.9792 15.1562 64.4922 14.9609 64.1641 14.5703C63.8359 14.1797 63.6719 13.625 63.6719 12.9062V7.66406H62.1328V6.54688H63.6719V4.5H65.1172ZM73.3125 12.7578C73.3125 12.3672 73.1641 12.0651 72.8672 11.8516C72.5755 11.6328 72.0625 11.4453 71.3281 11.2891C70.599 11.1328 70.0182 10.9453 69.5859 10.7266C69.1589 10.5078 68.8411 10.2474 68.6328 9.94531C68.4297 9.64323 68.3281 9.28385 68.3281 8.86719C68.3281 8.17448 68.6198 7.58854 69.2031 7.10938C69.7917 6.63021 70.5417 6.39062 71.4531 6.39062C72.4115 6.39062 73.1875 6.63802 73.7812 7.13281C74.3802 7.6276 74.6797 8.26042 74.6797 9.03125H73.2266C73.2266 8.63542 73.0573 8.29427 72.7188 8.00781C72.3854 7.72135 71.9635 7.57812 71.4531 7.57812C70.9271 7.57812 70.5156 7.69271 70.2188 7.92188C69.9219 8.15104 69.7734 8.45052 69.7734 8.82031C69.7734 9.16927 69.9115 9.43229 70.1875 9.60938C70.4635 9.78646 70.9609 9.95573 71.6797 10.1172C72.4036 10.2786 72.9896 10.4714 73.4375 10.6953C73.8854 10.9193 74.2161 11.1901 74.4297 11.5078C74.6484 11.8203 74.7578 12.2031 74.7578 12.6562C74.7578 13.4115 74.4557 14.0182 73.8516 14.4766C73.2474 14.9297 72.4635 15.1562 71.5 15.1562C70.8229 15.1562 70.224 15.0365 69.7031 14.7969C69.1823 14.5573 68.7734 14.224 68.4766 13.7969C68.1849 13.3646 68.0391 12.8984 68.0391 12.3984H69.4844C69.5104 12.8828 69.7031 13.2682 70.0625 13.5547C70.4271 13.8359 70.9062 13.9766 71.5 13.9766C72.0469 13.9766 72.4844 13.8672 72.8125 13.6484C73.1458 13.4245 73.3125 13.1276 73.3125 12.7578Z" fill="white"/>
<path d="M5.97656 11.7969H3.91406L3.28906 15H2.17188L2.79688 11.7969H0.929688V10.7266H3L3.53906 7.96094H1.52344V6.875H3.75L4.39062 3.625H5.50781L4.86719 6.875H6.92969L7.57031 3.625H8.69531L8.05469 6.875H9.64844V7.96094H7.84375L7.30469 10.7266H9.0625V11.7969H7.10156L6.47656 15H5.35156L5.97656 11.7969ZM4.11719 10.7266H6.17969L6.71875 7.96094H4.65625L4.11719 10.7266Z" fill="#49A144"/>
</svg>
